<svg width="25" height="30" viewBox="0 0 21 24" fill="none" xmlns="http://www.w3.org/2000/svg">
<path d="M10.0006 12.0036H3.12505M2.93017 13.1418L1.79423 17.4267C1.17209 19.7735 0.861019 20.9469 1.08426 21.6694C1.27811 22.297 1.69449 22.7727 2.20827 22.9538C2.79989 23.1623 3.69348 22.6545 5.48066 21.639L16.9381 15.1282C18.6826 14.1368 19.5548 13.6413 19.8243 12.9527C20.0586 12.3545 20.0586 11.6526 19.8243 11.0544C19.5548 10.366 18.6826 9.8703 16.9381 8.87901L5.4609 2.35705C3.6791 1.34455 2.78822 0.83829 2.19717 1.04597C1.68388 1.22632 1.26755 1.7008 1.07302 2.32716C0.849013 3.04839 1.15676 4.21925 1.77227 6.56096L2.93237 10.9747C3.03808 11.3769 3.09094 11.5781 3.1118 11.7836C3.13032 11.9662 3.13013 12.151 3.11125 12.3334C3.08996 12.539 3.0367 12.7399 2.93017 13.1418Z" stroke="black" stroke-width="2" stroke-linecap="round" stroke-linejoin="round"/>
</svg>
