<svg width="53" height="61" viewBox="0 0 53 61" fill="none" xmlns="http://www.w3.org/2000/svg">
<path fill-rule="evenodd" clip-rule="evenodd" d="M9.74709 45.3916C10.5373 44.8614 11.5514 45.1687 12.0122 46.0781C13.8382 49.6822 16.6297 52.4074 20.0722 54.1759C20.9075 54.6049 21.2824 55.7321 20.9096 56.6937C20.5368 57.6549 19.5575 58.0865 18.7222 57.6575C14.7218 55.6025 11.3655 52.37 9.15066 47.9986C8.68987 47.0892 8.9569 45.9221 9.74709 45.3916Z" fill="#9E908A"/>
<path fill-rule="evenodd" clip-rule="evenodd" d="M41.7503 9.96826C39.5113 7.33642 36.318 6.36565 33.1919 7.38939C32.3121 7.67751 31.3961 7.09021 31.1457 6.07761C30.8955 5.06501 31.4056 4.01055 32.2854 3.72242C36.5656 2.32072 41.0187 3.65896 44.117 7.30094C44.757 8.05317 44.7459 9.26008 44.0925 9.99663C43.4388 10.7332 42.3903 10.7205 41.7503 9.96826Z" fill="#9E908A"/>
<path fill-rule="evenodd" clip-rule="evenodd" d="M24.7115 8.40883C24.2389 7.47583 22.8613 6.91003 21.4619 7.8305C20.0676 8.74761 19.8224 10.3642 20.2869 11.2809L25.8644 22.2892C26.3251 23.1987 26.0581 24.3658 25.268 24.8962C24.4778 25.4266 23.4638 25.1192 23.0029 24.2097L15.5662 9.53207C15.0935 8.59907 13.7159 8.03327 12.3166 8.95374C10.9223 9.87085 10.6771 11.4874 11.1416 12.4042L19.5078 28.9165C19.9686 29.826 19.7016 30.9933 18.9114 31.5235C18.1212 32.054 17.1071 31.7467 16.6463 30.837L12.928 23.4983C12.4553 22.5653 11.0777 21.9995 9.67832 22.9199C8.28407 23.8371 8.03885 25.4535 8.50335 26.3703L16.8696 42.8827C20.4227 49.8955 29.1906 52.1713 36.6259 47.2803C44.0562 42.393 46.6974 32.6292 43.1526 25.6327L37.5752 14.6244C37.1024 13.6914 35.7249 13.1256 34.3254 14.0461C32.9313 14.9632 32.686 16.5798 33.1506 17.4966L36.8688 24.8354C37.0914 25.2746 37.1523 25.7979 37.0379 26.289C36.9235 26.7803 36.6435 27.1984 36.2599 27.4508C32.8536 29.6912 31.8097 34.0235 33.301 36.9668C33.7619 37.8764 33.4949 39.0436 32.7045 39.5738C31.9144 40.1042 30.9003 39.7969 30.4394 38.8875C28.4239 34.9093 29.2383 30.119 31.8417 26.7335C32.5696 25.787 32.8187 24.4101 32.2655 23.3182L24.7115 8.40883Z" fill="#9E908A"/>
</svg>
